<?xml version="1.0" encoding="utf-8"?>
<!-- Generator: Adobe Illustrator 16.0.0, SVG Export Plug-In . SVG Version: 6.00 Build 0)  -->
<!DOCTYPE svg PUBLIC "-//W3C//DTD SVG 1.1//EN" "http://www.w3.org/Graphics/SVG/1.1/DTD/svg11.dtd">
<svg version="1.1" id="Layer_1" xmlns="http://www.w3.org/2000/svg" xmlns:xlink="http://www.w3.org/1999/xlink" x="0px" y="0px"
	 width="122px" height="50px" viewBox="0 0 122 50" enable-background="new 0 0 122 50" xml:space="preserve">
<g>
	<path d="M62.65,21.67c2.28,0,3.814-1.507,3.814-3.674c0-2.145-1.534-3.663-3.825-3.663h-2.718v7.337H62.65z M62.64,20.537h-1.436
		v-5.071h1.446c1.623,0,2.5,1.122,2.5,2.53C65.15,19.394,64.229,20.537,62.64,20.537L62.64,20.537z M76.896,21.67l-2.872-7.337
		h-1.601l-2.871,7.337h1.457l0.537-1.419h3.354l0.537,1.419H76.896z M74.539,19.118h-2.63l1.315-3.498L74.539,19.118z M82.986,21.67
		v-6.204h2.215v-1.133H79.49v1.133h2.215v6.204H82.986z M95.149,21.67l-2.871-7.337h-1.601l-2.871,7.337h1.457l0.537-1.419h3.354
		l0.537,1.419H95.149z M92.793,19.118h-2.631l1.316-3.498L92.793,19.118z M62.432,35.803c1.962,0,2.828-1.057,2.828-2.277
		c0-2.729-4.253-1.881-4.253-3.256c0-0.539,0.482-0.913,1.228-0.913c0.768,0,1.545,0.264,2.127,0.847l0.723-0.957
		c-0.668-0.66-1.6-1.033-2.729-1.033c-1.612,0-2.664,0.935-2.664,2.155c0,2.695,4.253,1.738,4.253,3.278
		c0,0.495-0.405,1.012-1.458,1.012c-1.019,0-1.819-0.484-2.312-1.023l-0.723,1.002C60.108,35.318,61.083,35.803,62.432,35.803
		L62.432,35.803z M72.939,35.803c1.469,0,2.379-0.781,2.938-1.661l-1.096-0.55c-0.352,0.604-1.063,1.066-1.842,1.066
		c-1.447,0-2.521-1.122-2.521-2.65c0-1.551,1.074-2.651,2.521-2.651c0.778,0,1.49,0.45,1.842,1.067l1.084-0.572
		c-0.537-0.881-1.457-1.639-2.926-1.639c-2.159,0-3.836,1.528-3.836,3.795C69.104,34.262,70.78,35.803,72.939,35.803L72.939,35.803z
		 M81.168,35.67v-7.336h-1.283v7.336H81.168z M90.722,35.67v-1.133h-3.727v-2.046h3.649v-1.133h-3.649v-1.892h3.727v-1.133h-5.009
		v7.336H90.722z M101.361,35.67v-7.336h-1.283v5.082l-3.736-5.082h-1.315v7.336h1.282v-5.246l3.814,5.246H101.361z M109.425,35.803
		c1.469,0,2.378-0.781,2.938-1.661l-1.097-0.55c-0.35,0.604-1.062,1.066-1.841,1.066c-1.446,0-2.521-1.122-2.521-2.65
		c0-1.551,1.074-2.651,2.521-2.651c0.778,0,1.491,0.45,1.841,1.067l1.086-0.572c-0.537-0.881-1.458-1.639-2.927-1.639
		c-2.159,0-3.836,1.528-3.836,3.795C105.589,34.262,107.266,35.803,109.425,35.803L109.425,35.803z M121.379,35.67v-1.133h-3.727
		v-2.046h3.65v-1.133h-3.65v-1.892h3.727v-1.133h-5.008v7.336H121.379z"/>
	<path fill="#00AEF9" d="M25.242,50c13.757,0,24.909-11.193,24.909-25c0-13.807-11.152-25-24.909-25C11.484,0,0.332,11.193,0.332,25
		C0.332,38.807,11.484,50,25.242,50"/>
	<path fill="#22333E" d="M40.267,14.433c0-0.742-0.596-1.321-1.329-1.321c-0.71,0-1.329,0.58-1.329,1.321
		c0,0.742,0.619,1.345,1.329,1.345C39.671,15.778,40.267,15.175,40.267,14.433"/>
	<path fill="#FFFFFF" d="M17.733,27.27h-5.748l2.864-7.337L17.733,27.27z M15.965,17.969h-2.212L8.112,32.01h2.085l1.229-3.114
		h6.846L19.5,32.01h2.086l-5.608-14.009L15.965,17.969z M29.199,23.804c-1.772-0.483-3.302-0.9-3.302-2.232
		c0-1.275,1.152-2.165,2.802-2.165c1.145,0,2.765,0.287,3.981,1.655l0.04,0.043l1.106-1.354l-0.03-0.032
		c-1.226-1.295-2.937-1.98-4.951-1.98c-2.804,0-4.839,1.656-4.839,3.938c0,2.727,2.469,3.394,4.648,3.983
		c1.839,0.496,3.577,0.966,3.577,2.579c0,0.397-0.155,2.374-3.219,2.374c-2.356,0-3.802-1.391-4.314-1.988l-0.04-0.047l-1.104,1.419
		l0.027,0.031c1.272,1.439,3.179,2.232,5.368,2.232c3.813,0,5.173-2.142,5.173-4.146C34.123,25.146,31.507,24.433,29.199,23.804z
		 M38.024,32.01h1.828V17.969h-1.828V32.01z"/>
</g>
</svg>
