<?xml version="1.0" encoding="UTF-8"?>
<svg width="155px" height="80px" viewBox="0 0 155 80" version="1.1" xmlns="http://www.w3.org/2000/svg" xmlns:xlink="http://www.w3.org/1999/xlink">
    <!-- Generator: Sketch 43.2 (39069) - http://www.bohemiancoding.com/sketch -->
    <title>black@3x</title>
    <desc>Created with Sketch.</desc>
    <defs></defs>
    <g id="Page-1" stroke="none" stroke-width="1" fill="none" fill-rule="evenodd">
        <g id="Artboard-Copy" transform="translate(-59.000000, -175.000000)" fill-rule="nonzero" fill="#000000">
            <g id="black@3x" transform="translate(59.000000, 175.000000)">
                <path d="M62.2151976,0 L35.4205471,0 L70.9191489,79.7580547 L98.0911854,79.7580547 L62.2151976,0 Z M79.9078419,0 L115.324742,79.7580547 L142.069301,79.7580547 L106.399514,0 L79.9078419,0 Z M142.930091,0.0571428571 C138.069966,0.0397208272 133.678714,2.95400738 131.806785,7.43920592 C129.934857,11.9244045 130.951526,17.095724 134.382069,20.5384693 C137.812612,23.9812147 142.98029,25.0162385 147.472106,23.160247 C151.963923,21.3042556 154.893783,16.9233784 154.893617,12.0632219 C154.905177,5.44423754 149.549075,0.0689754104 142.930091,0.056899696 L142.930091,0.0571428571 Z M-6.45319674e-14,40.1181763 C-6.45319674e-14,62.1429787 17.7911246,79.9965957 39.7376292,79.9965957 C44.0320876,80.0005087 48.2985441,79.3052969 52.3696049,77.9382371 L20.0851064,5.45215805 C7.65143235,12.5630533 -0.0148594412,25.7947388 -9.21761819e-14,40.1181763 L-6.45319674e-14,40.1181763 Z" id="black"></path>
            </g>
        </g>
    </g>
</svg>