<?xml version="1.0" encoding="utf-8"?>
<!-- Generator: Adobe Illustrator 16.0.0, SVG Export Plug-In . SVG Version: 6.00 Build 0)  -->
<!DOCTYPE svg PUBLIC "-//W3C//DTD SVG 1.1//EN" "http://www.w3.org/Graphics/SVG/1.1/DTD/svg11.dtd">
<svg version="1.1" id="Layer_1" xmlns="http://www.w3.org/2000/svg" xmlns:xlink="http://www.w3.org/1999/xlink" x="0px" y="0px"
	 width="285px" height="80px" viewBox="0 0 285 80" enable-background="new 0 0 285 80" xml:space="preserve">
<title>Combined Shape</title>
<desc>Created with Sketch.</desc>
<g id="Assets">
	<g id="Retouch-4-Copy-7" transform="translate(-10.000000, -12.000000)">
		<path id="Combined-Shape" fill="#818181" d="M60.915,26.295H42.342c-11.295,0-18.07,6.89-18.07,18.203v18.301
			c0,4.115-3.081,7.201-7.189,7.201C12.977,70,10,66.914,10,62.799v-17.48C10,25.37,23.244,12,43.164,12h17.751
			C65.021,12,68,15.086,68,19.198C68,23.313,65.021,26.295,60.915,26.295z M81.982,33C86.049,33,89,36.081,89,40.187v17.547
			C89,77.652,75.879,91,56.149,91H39.018C34.949,91,32,87.92,32,83.812c0-4.105,2.949-7.084,7.018-7.084h17.945
			c11.187,0,17.899-6.879,17.899-18.172v-18.37C74.863,36.081,77.915,33,81.982,33z M197.679,17.511l30.468,63.538
			c1.455,3.016,1.351,7.904-2.704,10.088c-2.911,1.56-7.799,1.352-10.087-3.535l-7.529-16.18h-17.111
			c-3.791,0-6.865-3.093-6.865-6.908c0-3.814,3.074-6.907,6.865-6.907h10.682l-11.933-25.641l-25.788,55.636
			c-2.287,4.887-7.278,5.095-10.189,3.535c-4.056-2.184-4.056-7.072-2.6-10.088l30.362-63.538c1.145-2.288,3.433-5.511,8.215-5.511
			C194.247,12,196.535,15.224,197.679,17.511z M155.807,13c4.11,0,7.193,2.964,7.193,7.052s-3.083,7.052-7.193,7.052h-19.113v57.742
			c0,4.088-3.083,7.154-7.193,7.154s-7.193-3.066-7.193-7.154V27.104h-19.113c-4.11,0-7.193-2.964-7.193-7.052S99.083,13,103.193,13
			H155.807z M283.426,48.016C290.186,51.12,295,58.986,295,67.473C295,82.271,285.576,92,270.621,92H243.17
			c-4.098,0-7.17-3.105-7.17-7.244V19.245c0-4.14,3.072-7.245,7.17-7.245h25.301c12.906,0,21.51,9.729,21.51,20.388
			C289.98,40.771,286.396,45.635,283.426,48.016z M249,25v18h19.125c4.678,0,9.875-2.7,9.875-9c0-6.4-4.885-9-10.395-9H249z
			 M282,67.949C282,61.195,277.389,57,271.034,57H249v22h22.137C277.389,79,282,75.01,282,67.949z"/>
	</g>
</g>
</svg>
