<?xml version="1.0" encoding="utf-8"?>
<!-- Generator: Adobe Illustrator 16.0.0, SVG Export Plug-In . SVG Version: 6.00 Build 0)  -->
<!DOCTYPE svg PUBLIC "-//W3C//DTD SVG 1.1//EN" "http://www.w3.org/Graphics/SVG/1.1/DTD/svg11.dtd">
<svg version="1.1" id="Layer_4" xmlns="http://www.w3.org/2000/svg" xmlns:xlink="http://www.w3.org/1999/xlink" x="0px" y="0px"
	 width="553.184px" height="143.771px" viewBox="0 0 553.184 143.771" enable-background="new 0 0 553.184 143.771"
	 xml:space="preserve">
<g id="XMLID_60_">
	<g id="XMLID_61_">
		<g id="XMLID_62_">
			<path id="XMLID_106_" fill="none" d="M91.39,63.863l-33.54-58H13l37.02,64l-37.02,64h44.85l33.54-58
				C93.54,72.153,93.54,67.573,91.39,63.863z"/>
			<polygon id="XMLID_105_" fill="#FFC107" points="72.15,108.133 61.52,89.743 36,133.863 57.85,133.863 72.44,108.633 			"/>
			<path id="XMLID_104_" fill="none" d="M91.39,63.863l-33.54-58H13l37.02,64l-37.02,64h44.85l33.54-58
				C93.54,72.153,93.54,67.573,91.39,63.863z"/>
			<polygon id="XMLID_103_" fill="#0F9D58" points="50.02,69.863 61.52,89.743 36,133.863 13,133.863 			"/>
			<path id="XMLID_102_" fill="none" d="M91.39,63.863l-33.54-58H13l37.02,64l-37.02,64h44.85l33.54-58
				C93.54,72.153,93.54,67.573,91.39,63.863z"/>
			<polygon id="XMLID_101_" opacity="0.2" fill="#BF360C" enable-background="new    " points="57.85,132.863 36.58,132.863 
				36,133.863 57.85,133.863 72.44,108.633 72.15,108.133 			"/>
			<path id="XMLID_100_" fill="none" d="M91.39,63.863l-33.54-58H13l37.02,64l-37.02,64h44.85l33.54-58
				C93.54,72.153,93.54,67.573,91.39,63.863z"/>
			<polygon id="XMLID_99_" opacity="0.2" fill="#263238" enable-background="new    " points="13.58,132.863 13,133.863 36,133.863 
				36.58,132.863 			"/>
			<path id="XMLID_98_" fill="none" d="M91.39,63.863l-33.54-58H13l37.02,64l-37.02,64h44.85l33.54-58
				C93.54,72.153,93.54,67.573,91.39,63.863z"/>
			<polygon id="XMLID_96_" opacity="0.2" fill="#FFFFFF" enable-background="new    " points="13,133.863 13.58,133.863 
				50.31,70.363 50.02,69.863 			"/>
			<path id="XMLID_94_" fill="none" d="M91.39,63.863l-33.54-58H13l37.02,64l-37.02,64h44.85l33.54-58
				C93.54,72.153,93.54,67.573,91.39,63.863z"/>
			
				<radialGradient id="XMLID_2_" cx="-356.7222" cy="1997.7195" r="44.2469" gradientTransform="matrix(1 0 0 -1 429 2105.9585)" gradientUnits="userSpaceOnUse">
				<stop  offset="0" style="stop-color:#BF360C;stop-opacity:0.2"/>
				<stop  offset="1" style="stop-color:#BF360C;stop-opacity:0.02"/>
			</radialGradient>
			<polygon id="XMLID_92_" fill="url(#XMLID_2_)" points="72.44,108.633 72.44,108.633 61.52,89.743 58.84,94.374 			"/>
			<path id="XMLID_90_" fill="none" d="M91.39,63.863l-33.54-58H13l37.02,64l-37.02,64h44.85l33.54-58
				C93.54,72.153,93.54,67.573,91.39,63.863z"/>
			
				<radialGradient id="XMLID_3_" cx="-356.8491" cy="1997.4412" r="44.6234" gradientTransform="matrix(1 0 0 -1 429 2105.9585)" gradientUnits="userSpaceOnUse">
				<stop  offset="0" style="stop-color:#263238;stop-opacity:0.2"/>
				<stop  offset="1" style="stop-color:#263238;stop-opacity:0.02"/>
			</radialGradient>
			<polygon id="XMLID_89_" fill="url(#XMLID_3_)" points="58.84,94.374 61.52,89.743 50.02,69.863 44.53,79.363 			"/>
			<path id="XMLID_88_" fill="none" d="M91.39,63.863l-33.54-58H13l37.02,64l-37.02,64h44.85l33.54-58
				C93.54,72.153,93.54,67.573,91.39,63.863z"/>
			<g id="XMLID_85_">
				<g id="XMLID_86_">
					<polygon id="XMLID_87_" fill="#4285F4" points="36,5.863 13,5.863 72.44,108.633 83.93,88.763 83.94,88.743 					"/>
				</g>
			</g>
			<path id="XMLID_84_" fill="none" d="M91.39,63.863l-33.54-58H13l37.02,64l-37.02,64h44.85l33.54-58
				C93.54,72.153,93.54,67.573,91.39,63.863z"/>
			<path id="XMLID_83_" fill="#DB4437" d="M91.39,75.863c2.15-3.71,2.15-8.29,0-12l-33.54-58H36l47.94,82.88L91.39,75.863z"/>
			<path id="XMLID_82_" fill="none" d="M91.39,63.863l-33.54-58H13l37.02,64l-37.02,64h44.85l33.54-58
				C93.54,72.153,93.54,67.573,91.39,63.863z"/>
			<polygon id="XMLID_71_" opacity="0.2" fill="#1A237E" enable-background="new    " points="83.94,88.743 83.65,88.253 
				72.44,107.633 13.58,5.863 13,5.863 72.44,108.633 83.93,88.763 			"/>
			<path id="XMLID_69_" fill="none" d="M91.39,63.863l-33.54-58H13l37.02,64l-37.02,64h44.85l33.54-58
				C93.54,72.153,93.54,67.573,91.39,63.863z"/>
			<path id="XMLID_67_" opacity="0.2" fill="#FFFFFF" enable-background="new    " d="M57.85,6.863l33.54,58
				c0.99,1.71,1.5,3.6,1.58,5.5c0.09-2.24-0.42-4.5-1.58-6.5l-33.54-58H13l0.58,1H57.85z"/>
			<path id="XMLID_66_" fill="none" d="M91.39,63.863l-33.54-58H13l37.02,64l-37.02,64h44.85l33.54-58
				C93.54,72.153,93.54,67.573,91.39,63.863z"/>
			<path id="XMLID_65_" opacity="0.2" fill="#3E2723" enable-background="new    " d="M83.94,88.743l7.45-12.88
				c1.16-2,1.67-4.26,1.58-6.5c-0.08,1.9-0.59,3.79-1.58,5.5l-7.74,13.39L83.94,88.743z"/>
			<path id="XMLID_64_" fill="none" d="M91.39,63.863l-33.54-58H13l37.02,64l-37.02,64h44.85l33.54-58
				C93.54,72.153,93.54,67.573,91.39,63.863z"/>
			
				<radialGradient id="XMLID_4_" cx="-417" cy="2099.0955" r="134.3498" gradientTransform="matrix(1 0 0 -1 429 2105.9585)" gradientUnits="userSpaceOnUse">
				<stop  offset="0" style="stop-color:#FFFFFF;stop-opacity:0.1"/>
				<stop  offset="1" style="stop-color:#FFFFFF;stop-opacity:0"/>
			</radialGradient>
			<path id="XMLID_63_" fill="url(#XMLID_4_)" d="M91.39,63.863l-33.54-58H13l37.02,64l-37.02,64h44.85l33.54-58
				C93.54,72.153,93.54,67.573,91.39,63.863z"/>
		</g>
	</g>
</g>
<g>
	<path fill="#666666" d="M173.299,39.03c0,7-2.077,12.577-6.23,16.729c-4.714,4.947-10.85,7.422-18.41,7.422
		c-7.234,0-13.382-2.51-18.445-7.525c-5.064-5.016-7.595-11.235-7.595-18.655s2.531-13.638,7.595-18.655
		c5.063-5.016,11.211-7.523,18.445-7.523c3.593,0,7.023,0.7,10.29,2.1c3.266,1.4,5.88,3.269,7.84,5.602l-4.41,4.41
		c-3.314-3.968-7.887-5.95-13.72-5.95c-5.274,0-9.835,1.854-13.685,5.563s-5.775,8.529-5.775,14.455
		c0,5.927,1.925,10.745,5.775,14.455s8.411,5.565,13.685,5.565c5.6,0,10.266-1.866,14-5.602c2.426-2.426,3.826-5.81,4.2-10.148
		h-18.2V35.25h24.29C173.182,36.557,173.299,37.817,173.299,39.03z"/>
	<path fill="#666666" d="M179.683,62.06V11.94h15.33c7.7,0,13.86,2.322,18.48,6.965c4.62,4.644,6.93,10.675,6.93,18.095
		s-2.31,13.452-6.93,18.095c-4.62,4.646-10.78,6.967-18.48,6.967L179.683,62.06L179.683,62.06z M186.123,55.9h8.89
		c5.786,0,10.371-1.656,13.755-4.97c3.383-3.313,5.075-7.956,5.075-13.932c0-5.926-1.692-10.558-5.075-13.895
		c-3.384-3.336-7.969-5.005-13.755-5.005h-8.89V55.9z"/>
	<path fill="#666666" d="M275.092,39.03c0,7-2.077,12.577-6.23,16.729c-4.714,4.947-10.85,7.422-18.41,7.422
		c-7.234,0-13.382-2.51-18.445-7.525c-5.064-5.016-7.595-11.235-7.595-18.655s2.531-13.638,7.595-18.655
		c5.063-5.016,11.211-7.523,18.445-7.523c3.593,0,7.023,0.7,10.29,2.1c3.266,1.4,5.88,3.269,7.84,5.602l-4.41,4.41
		c-3.314-3.968-7.887-5.95-13.72-5.95c-5.274,0-9.835,1.854-13.685,5.563s-5.775,8.529-5.775,14.455
		c0,5.927,1.925,10.745,5.775,14.455s8.411,5.565,13.685,5.565c5.6,0,10.266-1.866,14-5.602c2.426-2.426,3.826-5.81,4.2-10.148
		h-18.2V35.25h24.29C274.975,36.557,275.092,37.817,275.092,39.03z"/>
	<path fill="#666666" d="M298.331,62.06V11.94h15.33c7.701,0,13.86,2.322,18.479,6.965c4.619,4.644,6.931,10.675,6.931,18.095
		s-2.312,13.452-6.931,18.095c-4.619,4.646-10.778,6.967-18.479,6.967L298.331,62.06L298.331,62.06z M304.771,55.9h8.89
		c5.787,0,10.371-1.656,13.756-4.97c3.383-3.313,5.074-7.956,5.074-13.932c0-5.926-1.691-10.558-5.074-13.895
		c-3.385-3.336-7.969-5.005-13.756-5.005h-8.89V55.9z"/>
	<path fill="#666666" d="M360.146,63.18c-5.18,0-9.393-1.728-12.635-5.182c-3.244-3.453-4.865-7.814-4.865-13.09
		c0-4.993,1.574-9.286,4.726-12.88c3.149-3.593,7.176-5.39,12.076-5.39c5.086,0,9.157,1.655,12.215,4.97
		c3.055,3.312,4.584,7.747,4.584,13.3l-0.07,1.19h-27.09c0.188,3.453,1.342,6.184,3.465,8.188c2.123,2.007,4.609,3.01,7.455,3.01
		c4.621,0,7.746-1.96,9.381-5.88l5.74,2.38c-1.121,2.66-2.965,4.891-5.531,6.687C367.031,62.28,363.879,63.18,360.146,63.18z
		 M369.387,40.78c-0.139-1.96-1.039-3.826-2.692-5.6c-1.658-1.773-4.119-2.66-7.388-2.66c-2.379,0-4.442,0.747-6.192,2.238
		c-1.75,1.494-2.953,3.5-3.605,6.021H369.387z"/>
	<path fill="#666666" d="M389.778,62.06l-13.86-34.301h7l10.08,26.602h0.139l10.222-26.602h6.858l-14,34.302L389.778,62.06
		L389.778,62.06z"/>
	<path fill="#666666" d="M420.446,62.06h-6.441V11.94h29.258v6.16h-22.815V34.55h20.578v6.021h-20.578L420.446,62.06L420.446,62.06z
		"/>
	<path fill="#666666" d="M462.702,63.18c-5.181,0-9.394-1.728-12.635-5.182c-3.244-3.453-4.865-7.814-4.865-13.09
		c0-4.993,1.576-9.286,4.725-12.88c3.15-3.593,7.179-5.39,12.076-5.39c5.086,0,9.158,1.655,12.215,4.97
		c3.058,3.313,4.584,7.747,4.584,13.3l-0.067,1.19h-27.09c0.186,3.453,1.342,6.184,3.465,8.188c2.123,2.007,4.606,3.01,7.455,3.01
		c4.618,0,7.745-1.96,9.381-5.88l5.737,2.38c-1.118,2.66-2.965,4.891-5.528,6.687C469.584,62.281,466.434,63.18,462.702,63.18z
		 M471.942,40.78c-0.142-1.96-1.039-3.826-2.695-5.6c-1.656-1.774-4.119-2.66-7.385-2.66c-2.379,0-4.445,0.747-6.195,2.238
		c-1.75,1.494-2.951,3.5-3.604,6.021H471.942z"/>
	<path fill="#666666" d="M495.889,63.18c-3.826,0-6.987-0.936-9.483-2.802c-2.498-1.864-4.33-4.198-5.496-7l5.74-2.38
		c1.819,4.294,4.924,6.44,9.311,6.44c2.006,0,3.65-0.443,4.937-1.33c1.282-0.886,1.926-2.053,1.926-3.5
		c0-2.24-1.564-3.756-4.689-4.55l-6.933-1.68c-2.193-0.56-4.271-1.621-6.229-3.185c-1.961-1.562-2.938-3.675-2.938-6.335
		c0-3.033,1.34-5.495,4.022-7.385c2.685-1.892,5.869-2.835,9.558-2.835c3.03,0,5.737,0.688,8.119,2.063
		c2.381,1.377,4.084,3.351,5.108,5.915l-5.6,2.312c-1.26-3.033-3.875-4.552-7.84-4.552c-1.914,0-3.525,0.397-4.83,1.19
		c-1.31,0.794-1.961,1.867-1.961,3.22c0,1.96,1.516,3.29,4.551,3.99l6.789,1.61c3.221,0.746,5.602,2.028,7.141,3.85
		c1.541,1.82,2.312,3.874,2.312,6.16c0,3.08-1.261,5.646-3.779,7.7C503.098,62.153,499.855,63.18,495.889,63.18z"/>
	<path fill="#666666" d="M528.766,62.62c-3.594,0-6.334-0.956-8.225-2.87c-1.891-1.913-2.834-4.62-2.834-8.12V33.64h-6.021V27.76
		h6.021v-10.5h6.439v10.5h8.397v5.882h-8.397v17.5c0,3.732,1.539,5.6,4.618,5.6c1.166,0,2.146-0.186,2.939-0.56l2.24,5.528
		C532.547,62.316,530.821,62.62,528.766,62.62z"/>
	<path fill="#666666" d="M125.069,128.06V77.94h6.44v43.96h21.7v6.16H125.069z"/>
	<path fill="#666666" d="M159.746,97.855c3.313-3.478,7.536-5.215,12.67-5.215c5.133,0,9.356,1.737,12.67,5.215
		c3.313,3.477,4.97,7.829,4.97,13.055c0,5.227-1.657,9.579-4.97,13.055c-3.314,3.479-7.537,5.217-12.67,5.217
		c-5.134,0-9.357-1.738-12.67-5.217c-3.314-3.476-4.97-7.828-4.97-13.055C154.776,105.684,156.432,101.332,159.746,97.855z
		 M164.541,119.905c2.216,2.264,4.841,3.395,7.875,3.395c3.033,0,5.658-1.131,7.875-3.395c2.216-2.263,3.325-5.261,3.325-8.995
		c0-3.733-1.109-6.729-3.325-8.995c-2.217-2.263-4.842-3.395-7.875-3.395c-3.034,0-5.659,1.132-7.875,3.395
		c-2.217,2.266-3.325,5.262-3.325,8.995C161.216,114.644,162.324,117.642,164.541,119.905z"/>
	<path fill="#666666" d="M200.822,93.76v4.762h0.28c0.933-1.633,2.403-3.021,4.41-4.165c2.006-1.145,4.153-1.715,6.44-1.715
		c4.246,0,7.49,1.307,9.73,3.92c2.24,2.612,3.36,6.112,3.36,10.5v21h-6.44V108.04c0-6.346-2.824-9.52-8.47-9.52
		c-2.66,0-4.83,1.062-6.51,3.185c-1.68,2.124-2.52,4.585-2.52,7.385v18.972h-6.44V93.76H200.822z"/>
	<path fill="#666666" d="M245.705,129.18c-4.434,0-8.26-1.75-11.48-5.25c-3.22-3.5-4.83-7.842-4.83-13.021s1.61-9.52,4.83-13.02
		c3.22-3.5,7.046-5.25,11.48-5.25c2.613,0,4.958,0.56,7.035,1.68c2.076,1.12,3.628,2.52,4.655,4.2h0.28l-0.28-4.762V77.94h6.44
		v50.12h-6.16V123.3h-0.28c-1.027,1.682-2.579,3.08-4.655,4.2C250.663,128.62,248.318,129.18,245.705,129.18z M246.755,123.3
		c3.033,0,5.611-1.118,7.735-3.358c2.123-2.24,3.185-5.25,3.185-9.03s-1.062-6.79-3.185-9.03c-2.124-2.238-4.702-3.358-7.735-3.358
		c-2.987,0-5.554,1.132-7.7,3.395c-2.147,2.266-3.22,5.263-3.22,8.995c0,3.734,1.073,6.732,3.22,8.995
		C241.201,122.169,243.768,123.3,246.755,123.3z"/>
	<path fill="#666666" d="M273.453,97.855c3.313-3.478,7.536-5.215,12.67-5.215c5.133,0,9.355,1.737,12.67,5.215
		c3.312,3.477,4.969,7.829,4.969,13.055c0,5.227-1.655,9.579-4.969,13.055c-3.314,3.479-7.537,5.217-12.67,5.217
		c-5.135,0-9.357-1.738-12.67-5.217c-3.314-3.476-4.97-7.828-4.97-13.055C268.482,105.684,270.138,101.332,273.453,97.855z
		 M278.249,119.905c2.215,2.264,4.84,3.395,7.875,3.395c3.032,0,5.657-1.131,7.875-3.395c2.215-2.263,3.324-5.261,3.324-8.995
		c0-3.733-1.109-6.729-3.324-8.995c-2.218-2.263-4.843-3.395-7.875-3.395c-3.035,0-5.66,1.132-7.875,3.395
		c-2.218,2.266-3.326,5.262-3.326,8.995C274.922,114.644,276.03,117.642,278.249,119.905z"/>
	<path fill="#666666" d="M314.528,93.76v4.762h0.278c0.935-1.633,2.404-3.021,4.41-4.165c2.006-1.145,4.154-1.715,6.441-1.715
		c4.246,0,7.49,1.307,9.729,3.92c2.24,2.612,3.361,6.112,3.361,10.5v21h-6.441V108.04c0-6.346-2.821-9.52-8.469-9.52
		c-2.66,0-4.83,1.062-6.51,3.185c-1.68,2.124-2.521,4.585-2.521,7.385v18.972h-6.438V93.76H314.528z"/>
	<path fill="#666666" d="M391.105,128.06h-30.52v-6.44c9.146-9.193,15.002-15.188,17.57-17.99c2.285-2.564,3.826-4.515,4.619-5.845
		s1.188-2.975,1.188-4.935c0-2.008-0.793-3.78-2.379-5.32c-1.588-1.54-3.711-2.312-6.371-2.312c-2.426,0-4.387,0.714-5.879,2.137
		c-1.494,1.424-2.451,2.952-2.871,4.585l-5.879-2.38c0.793-2.521,2.449-4.9,4.969-7.142c2.521-2.238,5.787-3.358,9.802-3.358
		c4.434,0,8.071,1.354,10.92,4.06c2.846,2.707,4.27,5.95,4.27,9.73c0,4.667-2.543,9.658-7.629,14.979l-14,14.07h22.189V128.06
		L391.105,128.06z"/>
	<path fill="#666666" d="M427.973,121.969c-3.547,4.809-8.188,7.212-13.928,7.212s-10.385-2.403-13.93-7.21
		c-3.547-4.808-5.32-10.758-5.32-17.852c0-7.14,1.773-13.101,5.32-17.885c3.545-4.783,8.188-7.175,13.93-7.175
		s10.381,2.392,13.928,7.175c3.549,4.784,5.32,10.745,5.32,17.885C433.293,111.214,431.521,117.164,427.973,121.969z
		 M414.045,123.02c3.826,0,6.896-1.796,9.205-5.392c2.311-3.593,3.465-8.096,3.465-13.51c0-5.46-1.154-9.975-3.465-13.545
		s-5.379-5.355-9.205-5.355c-3.875,0-6.955,1.785-9.24,5.355c-2.287,3.57-3.43,8.085-3.43,13.545c0,5.414,1.143,9.917,3.43,13.51
		C407.09,121.224,410.17,123.02,414.045,123.02z"/>
	<path fill="#666666" d="M453.727,128.06h-6.438v-39.9l-9.312,4.06l-2.448-5.46l14.067-6.578h4.131V128.06z"/>
	<g>
		<path fill="#666666" d="M468.184,129.051l-5.739-2.939l22.188-39.899h-24.22l0.141-6.16h30.869v6.58L468.184,129.051z"/>
	</g>
</g>
</svg>
